<?xml version="1.0" standalone="no"?>

<svg id="wave" style="transform:rotate(0deg); transition: 0.3s" viewBox="0 0 1440 490" version="1.1" xmlns="http://www.w3.org/2000/svg"><defs><linearGradient id="sw-gradient-0" x1="0" x2="0" y1="1" y2="0"><stop stop-color="rgba(0, 0, 0, 1)" offset="0%"></stop><stop stop-color="rgba(255, 255, 255, 0.06666666666666667)" offset="100%"></stop></linearGradient></defs><path style="transform:translate(0, 0px); opacity:1" fill="url(#sw-gradient-0)" d="M0,294L26.7,261.3C53.3,229,107,163,160,163.3C213.3,163,267,229,320,228.7C373.3,229,427,163,480,122.5C533.3,82,587,65,640,89.8C693.3,114,747,180,800,204.2C853.3,229,907,212,960,204.2C1013.3,196,1067,196,1120,187.8C1173.3,180,1227,163,1280,196C1333.3,229,1387,310,1440,294C1493.3,278,1547,163,1600,130.7C1653.3,98,1707,147,1760,179.7C1813.3,212,1867,229,1920,212.3C1973.3,196,2027,147,2080,138.8C2133.3,131,2187,163,2240,187.8C2293.3,212,2347,229,2400,196C2453.3,163,2507,82,2560,89.8C2613.3,98,2667,196,2720,196C2773.3,196,2827,98,2880,81.7C2933.3,65,2987,131,3040,155.2C3093.3,180,3147,163,3200,179.7C3253.3,196,3307,245,3360,294C3413.3,343,3467,392,3520,359.3C3573.3,327,3627,212,3680,212.3C3733.3,212,3787,327,3813,383.8L3840,441L3840,490L3813.3,490C3786.7,490,3733,490,3680,490C3626.7,490,3573,490,3520,490C3466.7,490,3413,490,3360,490C3306.7,490,3253,490,3200,490C3146.7,490,3093,490,3040,490C2986.7,490,2933,490,2880,490C2826.7,490,2773,490,2720,490C2666.7,490,2613,490,2560,490C2506.7,490,2453,490,2400,490C2346.7,490,2293,490,2240,490C2186.7,490,2133,490,2080,490C2026.7,490,1973,490,1920,490C1866.7,490,1813,490,1760,490C1706.7,490,1653,490,1600,490C1546.7,490,1493,490,1440,490C1386.7,490,1333,490,1280,490C1226.7,490,1173,490,1120,490C1066.7,490,1013,490,960,490C906.7,490,853,490,800,490C746.7,490,693,490,640,490C586.7,490,533,490,480,490C426.7,490,373,490,320,490C266.7,490,213,490,160,490C106.7,490,53,490,27,490L0,490Z"></path><defs><linearGradient id="sw-gradient-1" x1="0" x2="0" y1="1" y2="0"><stop stop-color="rgba(0, 0, 0, 1)" offset="0%"></stop><stop stop-color="rgba(255, 255, 255, 0.06666666666666667)" offset="100%"></stop></linearGradient></defs><path style="transform:translate(0, 50px); opacity:0.9" fill="url(#sw-gradient-1)" d="M0,245L26.7,220.5C53.3,196,107,147,160,130.7C213.3,114,267,131,320,179.7C373.3,229,427,310,480,302.2C533.3,294,587,196,640,196C693.3,196,747,294,800,277.7C853.3,261,907,131,960,65.3C1013.3,0,1067,0,1120,57.2C1173.3,114,1227,229,1280,302.2C1333.3,376,1387,408,1440,416.5C1493.3,425,1547,408,1600,400.2C1653.3,392,1707,392,1760,367.5C1813.3,343,1867,294,1920,245C1973.3,196,2027,147,2080,179.7C2133.3,212,2187,327,2240,383.8C2293.3,441,2347,441,2400,383.8C2453.3,327,2507,212,2560,171.5C2613.3,131,2667,163,2720,147C2773.3,131,2827,65,2880,65.3C2933.3,65,2987,131,3040,147C3093.3,163,3147,131,3200,114.3C3253.3,98,3307,98,3360,122.5C3413.3,147,3467,196,3520,236.8C3573.3,278,3627,310,3680,269.5C3733.3,229,3787,114,3813,57.2L3840,0L3840,490L3813.3,490C3786.7,490,3733,490,3680,490C3626.7,490,3573,490,3520,490C3466.7,490,3413,490,3360,490C3306.7,490,3253,490,3200,490C3146.7,490,3093,490,3040,490C2986.7,490,2933,490,2880,490C2826.7,490,2773,490,2720,490C2666.7,490,2613,490,2560,490C2506.7,490,2453,490,2400,490C2346.7,490,2293,490,2240,490C2186.7,490,2133,490,2080,490C2026.7,490,1973,490,1920,490C1866.7,490,1813,490,1760,490C1706.7,490,1653,490,1600,490C1546.7,490,1493,490,1440,490C1386.7,490,1333,490,1280,490C1226.7,490,1173,490,1120,490C1066.7,490,1013,490,960,490C906.7,490,853,490,800,490C746.7,490,693,490,640,490C586.7,490,533,490,480,490C426.7,490,373,490,320,490C266.7,490,213,490,160,490C106.7,490,53,490,27,490L0,490Z"></path><defs><linearGradient id="sw-gradient-2" x1="0" x2="0" y1="1" y2="0"><stop stop-color="rgba(0, 0, 0, 1)" offset="0%"></stop><stop stop-color="rgba(255, 255, 255, 0.06666666666666667)" offset="100%"></stop></linearGradient></defs><path style="transform:translate(0, 100px); opacity:0.8" fill="url(#sw-gradient-2)" d="M0,0L26.7,57.2C53.3,114,107,229,160,285.8C213.3,343,267,343,320,302.2C373.3,261,427,180,480,187.8C533.3,196,587,294,640,310.3C693.3,327,747,261,800,245C853.3,229,907,261,960,245C1013.3,229,1067,163,1120,147C1173.3,131,1227,163,1280,220.5C1333.3,278,1387,359,1440,326.7C1493.3,294,1547,147,1600,81.7C1653.3,16,1707,33,1760,65.3C1813.3,98,1867,147,1920,187.8C1973.3,229,2027,261,2080,285.8C2133.3,310,2187,327,2240,318.5C2293.3,310,2347,278,2400,220.5C2453.3,163,2507,82,2560,81.7C2613.3,82,2667,163,2720,220.5C2773.3,278,2827,310,2880,302.2C2933.3,294,2987,245,3040,236.8C3093.3,229,3147,261,3200,253.2C3253.3,245,3307,196,3360,220.5C3413.3,245,3467,343,3520,318.5C3573.3,294,3627,147,3680,130.7C3733.3,114,3787,229,3813,285.8L3840,343L3840,490L3813.3,490C3786.7,490,3733,490,3680,490C3626.7,490,3573,490,3520,490C3466.7,490,3413,490,3360,490C3306.7,490,3253,490,3200,490C3146.7,490,3093,490,3040,490C2986.7,490,2933,490,2880,490C2826.7,490,2773,490,2720,490C2666.7,490,2613,490,2560,490C2506.7,490,2453,490,2400,490C2346.7,490,2293,490,2240,490C2186.7,490,2133,490,2080,490C2026.7,490,1973,490,1920,490C1866.7,490,1813,490,1760,490C1706.7,490,1653,490,1600,490C1546.7,490,1493,490,1440,490C1386.7,490,1333,490,1280,490C1226.7,490,1173,490,1120,490C1066.7,490,1013,490,960,490C906.7,490,853,490,800,490C746.7,490,693,490,640,490C586.7,490,533,490,480,490C426.7,490,373,490,320,490C266.7,490,213,490,160,490C106.7,490,53,490,27,490L0,490Z"></path><defs><linearGradient id="sw-gradient-3" x1="0" x2="0" y1="1" y2="0"><stop stop-color="rgba(0, 0, 0, 1)" offset="0%"></stop><stop stop-color="rgba(255, 255, 255, 0.06666666666666667)" offset="100%"></stop></linearGradient></defs><path style="transform:translate(0, 150px); opacity:0.7" fill="url(#sw-gradient-3)" d="M0,98L26.7,130.7C53.3,163,107,229,160,220.5C213.3,212,267,131,320,106.2C373.3,82,427,114,480,106.2C533.3,98,587,49,640,98C693.3,147,747,294,800,302.2C853.3,310,907,180,960,163.3C1013.3,147,1067,245,1120,269.5C1173.3,294,1227,245,1280,245C1333.3,245,1387,294,1440,285.8C1493.3,278,1547,212,1600,220.5C1653.3,229,1707,310,1760,294C1813.3,278,1867,163,1920,114.3C1973.3,65,2027,82,2080,73.5C2133.3,65,2187,33,2240,16.3C2293.3,0,2347,0,2400,65.3C2453.3,131,2507,261,2560,269.5C2613.3,278,2667,163,2720,138.8C2773.3,114,2827,180,2880,179.7C2933.3,180,2987,114,3040,98C3093.3,82,3147,114,3200,114.3C3253.3,114,3307,82,3360,65.3C3413.3,49,3467,49,3520,49C3573.3,49,3627,49,3680,49C3733.3,49,3787,49,3813,49L3840,49L3840,490L3813.3,490C3786.7,490,3733,490,3680,490C3626.7,490,3573,490,3520,490C3466.7,490,3413,490,3360,490C3306.7,490,3253,490,3200,490C3146.7,490,3093,490,3040,490C2986.7,490,2933,490,2880,490C2826.7,490,2773,490,2720,490C2666.7,490,2613,490,2560,490C2506.7,490,2453,490,2400,490C2346.7,490,2293,490,2240,490C2186.7,490,2133,490,2080,490C2026.7,490,1973,490,1920,490C1866.7,490,1813,490,1760,490C1706.7,490,1653,490,1600,490C1546.7,490,1493,490,1440,490C1386.7,490,1333,490,1280,490C1226.7,490,1173,490,1120,490C1066.7,490,1013,490,960,490C906.7,490,853,490,800,490C746.7,490,693,490,640,490C586.7,490,533,490,480,490C426.7,490,373,490,320,490C266.7,490,213,490,160,490C106.7,490,53,490,27,490L0,490Z"></path></svg>